<?xml version="1.0" encoding="utf-8"?>
<!-- Generator: Adobe Illustrator 23.0.3, SVG Export Plug-In . SVG Version: 6.00 Build 0)  -->
<svg version="1.1" id="Layer_1" xmlns="http://www.w3.org/2000/svg" xmlns:xlink="http://www.w3.org/1999/xlink" x="0px" y="0px"
	 viewBox="0 0 360 360" style="enable-background:new 0 0 360 360;" xml:space="preserve">
<style type="text/css">
	.st0{fill:#ADD0EE;}
	.st1{fill:#F04A5A;}
</style>
<g>
	<g>
		<rect x="45.8" y="199.41" class="st0" width="268.4" height="1.4"/>
		<rect x="45.8" y="192.7" class="st0" width="268.4" height="1.4"/>
		<rect x="45.8" y="186" class="st0" width="268.4" height="1.4"/>
		<rect x="45.8" y="179.3" class="st0" width="268.4" height="1.4"/>
		<rect x="45.8" y="172.6" class="st0" width="268.4" height="1.4"/>
		<rect x="45.8" y="165.89" class="st0" width="268.4" height="1.4"/>
		<rect x="45.8" y="159.19" class="st0" width="268.4" height="1.4"/>
	</g>
	<g>
		<g>
			<path d="M68.34,162.86h3.56l15.59,37.05h-3.87l-4.03-9.84H59.97l-4.19,9.84h-3.61L68.34,162.86z M69.97,166.63l-8.63,20.3h17.01
				L69.97,166.63z"/>
			<path d="M118.11,194.1c-1.78,2.41-3.84,4.13-6.17,5.18c-2.34,1.05-4.87,1.57-7.59,1.57c-2.83,0-5.42-0.48-7.77-1.44
				c-2.35-0.96-4.37-2.3-6.04-4.03c-1.67-1.73-2.98-3.78-3.92-6.17c-0.94-2.39-1.41-5-1.41-7.82c0-2.83,0.47-5.42,1.41-7.8
				c0.94-2.37,2.25-4.42,3.92-6.15c1.67-1.73,3.69-3.08,6.04-4.06c2.35-0.98,4.94-1.46,7.77-1.46c2.51,0,4.86,0.44,7.04,1.33
				c2.18,0.89,4.09,2.38,5.73,4.47l-2.83,2.35c-1.15-1.74-2.63-3.02-4.42-3.82c-1.8-0.8-3.64-1.2-5.52-1.2
				c-2.41,0-4.58,0.42-6.51,1.26c-1.94,0.84-3.58,1.99-4.94,3.45c-1.36,1.46-2.41,3.19-3.14,5.18c-0.73,1.99-1.1,4.13-1.1,6.44
				c0,2.3,0.37,4.45,1.1,6.44c0.73,1.99,1.78,3.72,3.14,5.18c1.36,1.47,3.01,2.62,4.94,3.45c1.94,0.84,4.11,1.26,6.51,1.26
				c0.94,0,1.92-0.11,2.93-0.34c1.01-0.23,2-0.58,2.96-1.05c0.96-0.47,1.87-1.06,2.75-1.78c0.87-0.72,1.64-1.58,2.3-2.59
				L118.11,194.1z"/>
			<path d="M132.65,166h-12.66v-3.14h28.78V166H136.1v33.91h-3.45V166z"/>
			<path d="M152.38,162.86h3.45v37.05h-3.45V162.86z"/>
			<path d="M159.7,162.86h3.71l11.93,32.49l12.03-32.49h3.66l-14.08,37.05h-3.45L159.7,162.86z"/>
			<path d="M200.25,162.86h3.56l15.59,37.05h-3.87l-4.03-9.84h-19.62l-4.19,9.84h-3.61L200.25,162.86z M201.87,166.63l-8.63,20.3
				h17.01L201.87,166.63z"/>
			<path d="M228.35,166h-12.66v-3.14h28.78V166H231.8v33.91h-3.45V166z"/>
		</g>
		<g>
			<path d="M257.54,188.04v5.47h12.05l-0.51,6.4h-19.94v-37.5h19.94l0.51,6.4h-12.05v12.84h10l-0.51,6.4H257.54z"/>
			<path d="M289.79,162.41c10.1,0.26,18.76,8.29,18.76,18.78c0,9.77-8.31,18.73-18.76,18.73h-12.66v-37.5H289.79z M289.79,168.8
				h-4.25v24.71h4.25c6.41,0,9.74-5.58,9.74-12.33C299.53,174.79,296.76,168.8,289.79,168.8z"/>
		</g>
	</g>
	<rect x="45.8" y="152.2" class="st1" width="1.28" height="55.6"/>
	<g>
		<rect x="45.8" y="151.28" width="268.4" height="2.08"/>
		<rect x="45.8" y="206.64" width="268.4" height="2.08"/>
	</g>
</g>
</svg>
