<?xml version="1.0" encoding="utf-8"?>
<!-- Generator: Adobe Illustrator 23.0.3, SVG Export Plug-In . SVG Version: 6.00 Build 0)  -->
<svg version="1.1" id="Layer_1" xmlns="http://www.w3.org/2000/svg" xmlns:xlink="http://www.w3.org/1999/xlink" x="0px" y="0px"
	 viewBox="0 0 360 360" style="enable-background:new 0 0 360 360;" xml:space="preserve">
<style type="text/css">
	.st0{fill:#303C6C;}
	.st1{fill:#F6C22F;}
</style>
<g>
	<g>
		<path class="st0" d="M104.02,156.03h2.57l11.25,26.74h-2.79l-2.91-7.1H97.98l-3.02,7.1h-2.61L104.02,156.03z M105.19,158.75
			l-6.23,14.65h12.27L105.19,158.75z"/>
		<path class="st0" d="M139.94,178.58c-1.28,1.74-2.77,2.98-4.46,3.74c-1.69,0.76-3.51,1.13-5.48,1.13c-2.04,0-3.91-0.35-5.61-1.04
			s-3.15-1.66-4.36-2.91s-2.15-2.73-2.83-4.46c-0.68-1.72-1.02-3.61-1.02-5.65c0-2.04,0.34-3.91,1.02-5.63
			c0.68-1.71,1.62-3.19,2.83-4.44c1.21-1.25,2.66-2.22,4.36-2.93c1.7-0.7,3.57-1.06,5.61-1.06c1.81,0,3.51,0.32,5.08,0.96
			c1.57,0.64,2.95,1.72,4.14,3.23l-2.04,1.7c-0.83-1.26-1.9-2.18-3.19-2.76c-1.3-0.58-2.62-0.87-3.98-0.87c-1.74,0-3.3,0.3-4.7,0.91
			c-1.4,0.6-2.59,1.44-3.57,2.49c-0.98,1.06-1.74,2.3-2.27,3.74s-0.79,2.98-0.79,4.64c0,1.66,0.26,3.21,0.79,4.65
			s1.28,2.68,2.27,3.74c0.98,1.06,2.17,1.89,3.57,2.49c1.4,0.6,2.96,0.91,4.7,0.91c0.68,0,1.38-0.08,2.11-0.25
			c0.73-0.16,1.44-0.42,2.13-0.76c0.69-0.34,1.35-0.77,1.98-1.28c0.63-0.52,1.18-1.14,1.66-1.87L139.94,178.58z"/>
		<path class="st0" d="M150.43,158.3h-9.14v-2.27h20.77v2.27h-9.14v24.47h-2.49V158.3z"/>
		<path class="st0" d="M164.67,156.03h2.49v26.74h-2.49V156.03z"/>
		<path class="st0" d="M169.96,156.03h2.68l8.61,23.45l8.69-23.45h2.64l-10.16,26.74h-2.49L169.96,156.03z"/>
		<path class="st0" d="M199.22,156.03h2.57l11.25,26.74h-2.79l-2.91-7.1h-14.16l-3.02,7.1h-2.61L199.22,156.03z M200.39,158.75
			l-6.23,14.65h12.27L200.39,158.75z"/>
		<path class="st0" d="M219.5,158.3h-9.14v-2.27h20.77v2.27H222v24.47h-2.49V158.3z"/>
	</g>
	<g>
		<path class="st1" d="M240.57,174.21v3.95h8.7l-0.37,4.62H234.5v-27.07h14.39l0.37,4.62h-8.7v9.27h7.22l-0.37,4.62H240.57z"/>
		<path class="st1" d="M263.84,155.71c7.29,0.18,13.54,5.98,13.54,13.55c0,7.05-6,13.51-13.54,13.51h-9.14v-27.07H263.84z
			 M263.84,160.32h-3.07v17.84h3.07c4.62,0,7.03-4.02,7.03-8.9C270.87,164.64,268.88,160.32,263.84,160.32z"/>
	</g>
</g>
</svg>
