<?xml version="1.0" encoding="utf-8"?>
<!-- Generator: Adobe Illustrator 23.0.3, SVG Export Plug-In . SVG Version: 6.00 Build 0)  -->
<svg version="1.1" id="Layer_1" xmlns="http://www.w3.org/2000/svg" xmlns:xlink="http://www.w3.org/1999/xlink" x="0px" y="0px"
	 viewBox="0 0 186.53 29.33" style="enable-background:new 0 0 186.53 29.33;" xml:space="preserve">
<style type="text/css">
	.st0{fill:#313D6B;}
	.st1{fill:#F6C22F;}
</style>
<g>
	<g>
		<path class="st0" d="M12.2,1.39h2.57l11.25,26.74h-2.79l-2.91-7.1H6.16l-3.02,7.1H0.53L12.2,1.39z M13.37,4.11L7.14,18.76h12.27
			L13.37,4.11z"/>
		<path class="st0" d="M48.12,23.94c-1.28,1.74-2.77,2.98-4.46,3.74c-1.69,0.76-3.51,1.13-5.48,1.13c-2.04,0-3.91-0.35-5.61-1.04
			c-1.7-0.69-3.15-1.66-4.36-2.91s-2.15-2.73-2.83-4.46c-0.68-1.72-1.02-3.61-1.02-5.65c0-2.04,0.34-3.91,1.02-5.63
			c0.68-1.71,1.62-3.19,2.83-4.44c1.21-1.25,2.66-2.22,4.36-2.93c1.7-0.7,3.57-1.06,5.61-1.06c1.81,0,3.51,0.32,5.08,0.96
			c1.57,0.64,2.95,1.72,4.14,3.23l-2.04,1.7c-0.83-1.26-1.9-2.18-3.19-2.76c-1.3-0.58-2.62-0.87-3.98-0.87c-1.74,0-3.3,0.3-4.7,0.91
			c-1.4,0.6-2.59,1.44-3.57,2.49c-0.98,1.06-1.74,2.3-2.27,3.74s-0.79,2.98-0.79,4.64c0,1.66,0.26,3.21,0.79,4.65
			s1.28,2.68,2.27,3.74c0.98,1.06,2.17,1.89,3.57,2.49c1.4,0.6,2.96,0.91,4.7,0.91c0.68,0,1.38-0.08,2.11-0.25
			c0.73-0.16,1.44-0.42,2.13-0.76c0.69-0.34,1.35-0.77,1.98-1.28c0.63-0.52,1.18-1.14,1.66-1.87L48.12,23.94z"/>
		<path class="st0" d="M58.61,3.66h-9.14V1.39h20.77v2.27h-9.14v24.47h-2.49V3.66z"/>
		<path class="st0" d="M72.85,1.39h2.49v26.74h-2.49V1.39z"/>
		<path class="st0" d="M78.14,1.39h2.68l8.61,23.45l8.69-23.45h2.64L90.6,28.13h-2.49L78.14,1.39z"/>
		<path class="st0" d="M107.4,1.39h2.57l11.25,26.74h-2.79l-2.91-7.1h-14.16l-3.02,7.1h-2.61L107.4,1.39z M108.57,4.11l-6.23,14.65
			h12.27L108.57,4.11z"/>
		<path class="st0" d="M127.68,3.66h-9.14V1.39h20.77v2.27h-9.14v24.47h-2.49V3.66z"/>
	</g>
	<g>
		<path class="st1" d="M148.75,19.56v3.95h8.7l-0.37,4.62h-14.39V1.06h14.39l0.37,4.62h-8.7v9.27h7.22l-0.37,4.62H148.75z"/>
		<path class="st1" d="M172.02,1.06c7.29,0.18,13.54,5.98,13.54,13.55c0,7.05-6,13.52-13.54,13.52h-9.14V1.06H172.02z M172.02,5.68
			h-3.07v17.84h3.07c4.62,0,7.03-4.02,7.03-8.9C179.05,10,177.06,5.68,172.02,5.68z"/>
	</g>
</g>
</svg>
