<?xml version="1.0"?>
<svg xmlns="http://www.w3.org/2000/svg" viewBox="0 0 64 64">
    <path d="M 54.34375 2.0390625 C 53.307375 2.0389375 52.271625 2.415875 51.515625 3.171875 L 48.738281 5.9472656 C 48.738281 5.9472656 48.736328 5.9492188 48.736328 5.9492188 L 48.275391 6.4101562 L 47.980469 6.7070312 C 47.980469 6.7070312 47.978516 6.7089844 47.978516 6.7089844 L 46.623047 8.0664062 C 46.518047 8.0294062 46.411922 8 46.294922 8 L 5 8 C 3.346 8 2 9.346 2 11 L 2 57 C 2 58.654 3.346 60 5 60 L 51 60 C 52.654 60 54 58.654 54 57 L 54 23.324219 L 59.294922 18.019531 L 62.828125 14.486328 C 63.584125 13.730328 64 12.72425 64 11.65625 C 64 10.58825 63.584125 9.583125 62.828125 8.828125 L 57.171875 3.171875 C 56.417375 2.416375 55.380125 2.0391875 54.34375 2.0390625 z M 54.34375 4.0195312 C 54.86175 4.0195312 55.379812 4.2079375 55.757812 4.5859375 L 61.414062 10.242188 C 61.792063 10.620188 62 11.12225 62 11.65625 C 62 12.19025 61.792062 12.692312 61.414062 13.070312 L 58.585938 15.898438 L 50.101562 7.4140625 L 50.152344 7.3632812 L 52.929688 4.5859375 C 53.307688 4.2079375 53.82575 4.0195312 54.34375 4.0195312 z M 48.6875 8.8300781 L 57.171875 17.314453 L 55.755859 18.734375 C 55.363859 18.364375 54.748234 18.366 54.365234 18.75 L 52.951172 20.164062 C 52.566172 20.549063 52.5645 21.166594 52.9375 21.558594 L 51.521484 22.976562 L 43.037109 14.492188 L 48.6875 8.8300781 z M 5 10 L 44.693359 10 L 40.953125 13.748047 C 40.939125 13.761047 40.921203 13.765297 40.908203 13.779297 C 40.894203 13.793297 40.889953 13.811172 40.876953 13.826172 L 21.136719 33.607422 C 20.977719 33.767422 20.876563 33.974266 20.851562 34.197266 L 20.119141 40.507812 L 19.410156 45.457031 C 19.366156 45.769031 19.471359 46.083641 19.693359 46.306641 C 19.881359 46.495641 20.136391 46.599609 20.400391 46.599609 C 20.447391 46.599609 20.494969 46.596844 20.542969 46.589844 L 25.464844 45.886719 L 31.849609 45.210938 C 32.077609 45.186937 32.290125 45.083875 32.453125 44.921875 L 52 25.330078 L 52 57 C 52 57.551 51.552 58 51 58 L 5 58 C 4.448 58 4 57.551 4 57 L 4 11 C 4 10.449 4.448 10 5 10 z M 48.001953 11.386719 C 47.746203 11.386844 47.490422 11.484688 47.294922 11.679688 L 45.880859 13.09375 C 45.489859 13.48475 45.489859 14.116813 45.880859 14.507812 C 46.075859 14.702813 46.331891 14.800781 46.587891 14.800781 C 46.843891 14.800781 47.099922 14.702813 47.294922 14.507812 L 48.707031 13.09375 C 49.098031 12.70275 49.098031 12.070687 48.707031 11.679688 C 48.511531 11.484188 48.257703 11.386594 48.001953 11.386719 z M 10 14 C 8.897 14 8 14.897 8 16 L 8 52 C 8 53.103 8.897 54 10 54 L 13 54 C 13.553 54 14 53.552 14 53 C 14 52.448 13.553 52 13 52 L 10 52 L 10 16 L 35.332031 16 C 35.885031 16 36.332031 15.552 36.332031 15 C 36.332031 14.448 35.885031 14 35.332031 14 L 10 14 z M 51.535156 14.919922 C 51.279406 14.919922 51.023625 15.019344 50.828125 15.214844 L 49.414062 16.628906 C 49.023063 17.019906 49.023063 17.652969 49.414062 18.042969 C 49.609063 18.237969 49.865094 18.335937 50.121094 18.335938 C 50.377094 18.335938 50.633125 18.237969 50.828125 18.042969 L 52.242188 16.628906 C 52.633187 16.237906 52.633187 15.604844 52.242188 15.214844 C 52.046688 15.019344 51.790906 14.919922 51.535156 14.919922 z M 41.623047 15.908203 L 50.107422 24.392578 L 32.455078 42.083984 L 32.003906 37.716797 C 31.949906 37.206797 31.520813 36.820312 31.007812 36.820312 L 29.179688 36.820312 L 29.179688 35.404297 L 34.544922 30.041016 C 34.935922 29.650016 34.935922 29.017953 34.544922 28.626953 C 34.153922 28.235953 33.521859 28.235953 33.130859 28.626953 L 27.810547 33.945312 L 24.021484 33.546875 L 41.623047 15.908203 z M 39.494141 22.677734 C 39.238391 22.677734 38.982609 22.775203 38.787109 22.970703 L 35.957031 25.798828 C 35.566031 26.188828 35.566031 26.821891 35.957031 27.212891 C 36.152031 27.407891 36.408062 27.505859 36.664062 27.505859 C 36.920063 27.505859 37.176094 27.407891 37.371094 27.212891 L 40.201172 24.384766 C 40.592172 23.994766 40.592172 23.361703 40.201172 22.970703 C 40.005672 22.775203 39.749891 22.677734 39.494141 22.677734 z M 47 34.082031 C 46.447 34.082031 46 34.530031 46 35.082031 L 46 52 L 43 52 C 42.447 52 42 52.448 42 53 C 42 53.552 42.447 54 43 54 L 46 54 C 47.103 54 48 53.103 48 52 L 48 35.082031 C 48 34.530031 47.553 34.082031 47 34.082031 z M 22.724609 35.421875 L 27.179688 35.890625 L 27.179688 37.818359 C 27.179688 38.371359 27.626687 38.820312 28.179688 38.820312 L 30.107422 38.820312 L 30.574219 43.332031 L 25.720703 43.845703 L 22.158203 40.283203 L 22.724609 35.421875 z M 18 50 C 17.447 50 17 50.448 17 51 L 17 53 C 17 53.552 17.447 54 18 54 C 18.553 54 19 53.552 19 53 L 19 51 C 19 50.448 18.553 50 18 50 z M 23 50 C 22.447 50 22 50.448 22 51 L 22 53 C 22 53.552 22.447 54 23 54 C 23.553 54 24 53.552 24 53 L 24 51 C 24 50.448 23.553 50 23 50 z M 28 50 C 27.447 50 27 50.448 27 51 L 27 53 C 27 53.552 27.447 54 28 54 C 28.553 54 29 53.552 29 53 L 29 51 C 29 50.448 28.553 50 28 50 z M 33 50 C 32.447 50 32 50.448 32 51 L 32 53 C 32 53.552 32.447 54 33 54 C 33.553 54 34 53.552 34 53 L 34 51 C 34 50.448 33.553 50 33 50 z M 38 50 C 37.447 50 37 50.448 37 51 L 37 53 C 37 53.552 37.447 54 38 54 C 38.553 54 39 53.552 39 53 L 39 51 C 39 50.448 38.553 50 38 50 z"/>
</svg>
